<mxfile host="app.diagrams.net" agent="Mozilla/5.0 (Windows NT 10.0; Win64; x64; rv:133.0) Gecko/20100101 Firefox/133.0" version="25.0.1">
  <diagram name="Page-1" id="Wa052aFKa9Bia7kXxzfk">
    <mxGraphModel dx="2074" dy="1142" grid="1" gridSize="10" guides="1" tooltips="1" connect="1" arrows="1" fold="1" page="1" pageScale="1" pageWidth="850" pageHeight="1100" math="0" shadow="0">
      <root>
        <mxCell id="0" />
        <mxCell id="1" parent="0" />
        <mxCell id="v-_W1gMNBMWAKdvKEkjo-3" value="" style="edgeStyle=orthogonalEdgeStyle;rounded=0;orthogonalLoop=1;jettySize=auto;html=1;" parent="1" source="oByA1WbZYRaLfuXk5zpP-2" target="oByA1WbZYRaLfuXk5zpP-5" edge="1">
          <mxGeometry relative="1" as="geometry" />
        </mxCell>
        <mxCell id="oByA1WbZYRaLfuXk5zpP-2" value="&lt;div&gt;&lt;b&gt;+28V GSE Line&lt;/b&gt;&lt;/div&gt;" style="rounded=0;whiteSpace=wrap;html=1;" parent="1" vertex="1">
          <mxGeometry x="15" width="120" height="60" as="geometry" />
        </mxCell>
        <mxCell id="lwoqXdrOreYqvJ2Ye-41-3" style="edgeStyle=orthogonalEdgeStyle;rounded=0;orthogonalLoop=1;jettySize=auto;html=1;entryX=0.5;entryY=0;entryDx=0;entryDy=0;" parent="1" source="oByA1WbZYRaLfuXk5zpP-5" target="lwoqXdrOreYqvJ2Ye-41-2" edge="1">
          <mxGeometry relative="1" as="geometry">
            <Array as="points">
              <mxPoint x="75" y="170" />
              <mxPoint x="570" y="170" />
            </Array>
          </mxGeometry>
        </mxCell>
        <mxCell id="lwoqXdrOreYqvJ2Ye-41-7" style="edgeStyle=orthogonalEdgeStyle;rounded=0;orthogonalLoop=1;jettySize=auto;html=1;entryX=0.5;entryY=0;entryDx=0;entryDy=0;" parent="1" source="oByA1WbZYRaLfuXk5zpP-5" target="oByA1WbZYRaLfuXk5zpP-10" edge="1">
          <mxGeometry relative="1" as="geometry">
            <Array as="points">
              <mxPoint x="75" y="180" />
              <mxPoint x="75" y="180" />
            </Array>
          </mxGeometry>
        </mxCell>
        <mxCell id="oByA1WbZYRaLfuXk5zpP-5" value="&lt;div&gt;+5V Step Down Converter&lt;/div&gt;" style="rounded=0;whiteSpace=wrap;html=1;" parent="1" vertex="1">
          <mxGeometry x="15" y="100" width="120" height="60" as="geometry" />
        </mxCell>
        <mxCell id="oByA1WbZYRaLfuXk5zpP-10" value="&lt;div&gt;&lt;b&gt;EBYTE &lt;/b&gt;&lt;strong&gt;E22-900M33S&lt;/strong&gt;&lt;/div&gt;&lt;div&gt;2W 868MHz LoRa Module&lt;b&gt;&lt;br&gt;&lt;/b&gt;&lt;/div&gt;" style="rounded=0;whiteSpace=wrap;html=1;" parent="1" vertex="1">
          <mxGeometry y="350" width="150" height="60" as="geometry" />
        </mxCell>
        <mxCell id="lwoqXdrOreYqvJ2Ye-41-25" value="" style="edgeStyle=orthogonalEdgeStyle;rounded=0;orthogonalLoop=1;jettySize=auto;html=1;" parent="1" source="oByA1WbZYRaLfuXk5zpP-11" target="lwoqXdrOreYqvJ2Ye-41-24" edge="1">
          <mxGeometry relative="1" as="geometry" />
        </mxCell>
        <mxCell id="oByA1WbZYRaLfuXk5zpP-11" value="&lt;div&gt;ESP32-S3 WROOM 2&lt;br&gt;&lt;/div&gt;&lt;div&gt;&amp;nbsp;&lt;span style=&quot;font-weight: normal;&quot;&gt;System on Module&lt;/span&gt;&lt;/div&gt;&lt;div&gt;&lt;span style=&quot;font-weight: normal;&quot;&gt;32MB Flash, 8MB PSRAM&lt;/span&gt;&lt;br&gt;&lt;/div&gt;" style="rounded=0;whiteSpace=wrap;html=1;fontStyle=1" parent="1" vertex="1">
          <mxGeometry x="330" y="340" width="120" height="80" as="geometry" />
        </mxCell>
        <mxCell id="oByA1WbZYRaLfuXk5zpP-16" value="&lt;div&gt;&lt;b&gt;868MHz Antenna&lt;/b&gt;&lt;/div&gt;" style="rounded=0;whiteSpace=wrap;html=1;" parent="1" vertex="1">
          <mxGeometry x="15" y="490" width="120" height="60" as="geometry" />
        </mxCell>
        <mxCell id="oByA1WbZYRaLfuXk5zpP-21" value="" style="endArrow=classic;startArrow=classic;html=1;rounded=0;entryX=0.5;entryY=1;entryDx=0;entryDy=0;exitX=0.5;exitY=0;exitDx=0;exitDy=0;" parent="1" source="oByA1WbZYRaLfuXk5zpP-16" target="oByA1WbZYRaLfuXk5zpP-10" edge="1">
          <mxGeometry width="50" height="50" relative="1" as="geometry">
            <mxPoint x="200" y="480" as="sourcePoint" />
            <mxPoint x="250" y="430" as="targetPoint" />
          </mxGeometry>
        </mxCell>
        <mxCell id="oByA1WbZYRaLfuXk5zpP-23" value="SPI Bus" style="text;html=1;align=center;verticalAlign=middle;whiteSpace=wrap;rounded=0;" parent="1" vertex="1">
          <mxGeometry x="210" y="380" width="60" height="30" as="geometry" />
        </mxCell>
        <mxCell id="H0pCm_QsT9bV7-cQjPzx-4" value="" style="endArrow=classic;startArrow=classic;html=1;rounded=0;entryX=0;entryY=0.5;entryDx=0;entryDy=0;" parent="1" target="oByA1WbZYRaLfuXk5zpP-11" edge="1">
          <mxGeometry width="50" height="50" relative="1" as="geometry">
            <mxPoint x="150" y="380" as="sourcePoint" />
            <mxPoint x="200" y="330" as="targetPoint" />
          </mxGeometry>
        </mxCell>
        <mxCell id="lwoqXdrOreYqvJ2Ye-41-13" style="edgeStyle=orthogonalEdgeStyle;rounded=0;orthogonalLoop=1;jettySize=auto;html=1;entryX=0;entryY=0.25;entryDx=0;entryDy=0;" parent="1" source="H0pCm_QsT9bV7-cQjPzx-5" target="oByA1WbZYRaLfuXk5zpP-11" edge="1">
          <mxGeometry relative="1" as="geometry">
            <Array as="points">
              <mxPoint x="198" y="360" />
            </Array>
          </mxGeometry>
        </mxCell>
        <mxCell id="H0pCm_QsT9bV7-cQjPzx-5" value="&lt;div&gt;&lt;b&gt;Sensors&lt;/b&gt;&lt;/div&gt;&lt;div&gt;BME280 Temperature/Pressure/Humidity Sensor&lt;/div&gt;&lt;div&gt;BNO086 9-Axis IMU&lt;br&gt;&lt;/div&gt;" style="rounded=0;whiteSpace=wrap;html=1;" parent="1" vertex="1">
          <mxGeometry x="95" y="255" width="205" height="65" as="geometry" />
        </mxCell>
        <mxCell id="H0pCm_QsT9bV7-cQjPzx-9" value="I2C Bus" style="text;html=1;align=center;verticalAlign=middle;whiteSpace=wrap;rounded=0;" parent="1" vertex="1">
          <mxGeometry x="210" y="330" width="60" height="30" as="geometry" />
        </mxCell>
        <mxCell id="lwoqXdrOreYqvJ2Ye-41-5" value="" style="edgeStyle=orthogonalEdgeStyle;rounded=0;orthogonalLoop=1;jettySize=auto;html=1;" parent="1" source="H0pCm_QsT9bV7-cQjPzx-11" target="oByA1WbZYRaLfuXk5zpP-11" edge="1">
          <mxGeometry relative="1" as="geometry" />
        </mxCell>
        <mxCell id="lwoqXdrOreYqvJ2Ye-41-23" value="" style="edgeStyle=orthogonalEdgeStyle;rounded=0;orthogonalLoop=1;jettySize=auto;html=1;" parent="1" source="H0pCm_QsT9bV7-cQjPzx-11" target="H0pCm_QsT9bV7-cQjPzx-5" edge="1">
          <mxGeometry relative="1" as="geometry">
            <Array as="points">
              <mxPoint x="320" y="288" />
              <mxPoint x="320" y="288" />
            </Array>
          </mxGeometry>
        </mxCell>
        <mxCell id="H0pCm_QsT9bV7-cQjPzx-11" value="+3.3V Step Down Converter" style="rounded=0;whiteSpace=wrap;html=1;" parent="1" vertex="1">
          <mxGeometry x="340" y="280" width="100" height="40" as="geometry" />
        </mxCell>
        <mxCell id="lwoqXdrOreYqvJ2Ye-41-2" value="&lt;div&gt;&lt;b&gt;Raspberry Pi 5&lt;/b&gt;&lt;/div&gt;&lt;div&gt;with Camera Module&lt;br&gt;&lt;/div&gt;" style="rounded=0;whiteSpace=wrap;html=1;" parent="1" vertex="1">
          <mxGeometry x="510" y="360" width="120" height="60" as="geometry" />
        </mxCell>
        <mxCell id="lwoqXdrOreYqvJ2Ye-41-6" value="" style="endArrow=classic;startArrow=classic;html=1;rounded=0;entryX=0;entryY=0.5;entryDx=0;entryDy=0;exitX=0;exitY=0;exitDx=0;exitDy=0;" parent="1" source="lwoqXdrOreYqvJ2Ye-41-26" target="lwoqXdrOreYqvJ2Ye-41-2" edge="1">
          <mxGeometry width="50" height="50" relative="1" as="geometry">
            <mxPoint x="450" y="380" as="sourcePoint" />
            <mxPoint x="500" y="330" as="targetPoint" />
          </mxGeometry>
        </mxCell>
        <mxCell id="lwoqXdrOreYqvJ2Ye-41-20" value="" style="endArrow=classic;html=1;rounded=0;entryX=0.5;entryY=0;entryDx=0;entryDy=0;" parent="1" target="H0pCm_QsT9bV7-cQjPzx-11" edge="1">
          <mxGeometry width="50" height="50" relative="1" as="geometry">
            <mxPoint x="390" y="170" as="sourcePoint" />
            <mxPoint x="420" y="200" as="targetPoint" />
          </mxGeometry>
        </mxCell>
        <mxCell id="lwoqXdrOreYqvJ2Ye-41-21" value="UART" style="text;strokeColor=none;align=center;fillColor=none;html=1;verticalAlign=middle;whiteSpace=wrap;rounded=0;" parent="1" vertex="1">
          <mxGeometry x="390" y="420" width="60" height="30" as="geometry" />
        </mxCell>
        <mxCell id="lwoqXdrOreYqvJ2Ye-41-28" value="" style="edgeStyle=orthogonalEdgeStyle;rounded=0;orthogonalLoop=1;jettySize=auto;html=1;" parent="1" source="lwoqXdrOreYqvJ2Ye-41-24" target="lwoqXdrOreYqvJ2Ye-41-27" edge="1">
          <mxGeometry relative="1" as="geometry" />
        </mxCell>
        <mxCell id="lwoqXdrOreYqvJ2Ye-41-24" value="&lt;div&gt;&lt;b&gt;2x RS232 Level Shifters&lt;/b&gt;&lt;/div&gt;" style="rounded=0;whiteSpace=wrap;html=1;" parent="1" vertex="1">
          <mxGeometry x="330" y="450" width="120" height="40" as="geometry" />
        </mxCell>
        <mxCell id="lwoqXdrOreYqvJ2Ye-41-26" value="UART" style="text;strokeColor=none;align=center;fillColor=none;html=1;verticalAlign=middle;whiteSpace=wrap;rounded=0;" parent="1" vertex="1">
          <mxGeometry x="450" y="390" width="60" height="30" as="geometry" />
        </mxCell>
        <mxCell id="lwoqXdrOreYqvJ2Ye-41-27" value="&lt;b&gt;Rocket Telemetry&lt;/b&gt;" style="rounded=0;whiteSpace=wrap;html=1;" parent="1" vertex="1">
          <mxGeometry x="330" y="510" width="120" height="40" as="geometry" />
        </mxCell>
        <mxCell id="lwoqXdrOreYqvJ2Ye-41-32" value="" style="edgeStyle=orthogonalEdgeStyle;rounded=0;orthogonalLoop=1;jettySize=auto;html=1;" parent="1" source="lwoqXdrOreYqvJ2Ye-41-29" target="lwoqXdrOreYqvJ2Ye-41-31" edge="1">
          <mxGeometry relative="1" as="geometry" />
        </mxCell>
        <mxCell id="lwoqXdrOreYqvJ2Ye-41-29" value="&lt;div&gt;&lt;b&gt;TE Line&lt;/b&gt;&lt;/div&gt;&lt;div&gt;For Radio Activation&lt;b&gt;&lt;br&gt;&lt;/b&gt;&lt;/div&gt;" style="rounded=0;whiteSpace=wrap;html=1;" parent="1" vertex="1">
          <mxGeometry x="430" width="120" height="60" as="geometry" />
        </mxCell>
        <mxCell id="lwoqXdrOreYqvJ2Ye-41-35" style="edgeStyle=orthogonalEdgeStyle;rounded=0;orthogonalLoop=1;jettySize=auto;html=1;entryX=1;entryY=0.25;entryDx=0;entryDy=0;jumpStyle=arc;jumpSize=15;" parent="1" source="lwoqXdrOreYqvJ2Ye-41-31" target="oByA1WbZYRaLfuXk5zpP-11" edge="1">
          <mxGeometry relative="1" as="geometry" />
        </mxCell>
        <mxCell id="lwoqXdrOreYqvJ2Ye-41-31" value="Voltage Divider" style="rounded=0;whiteSpace=wrap;html=1;" parent="1" vertex="1">
          <mxGeometry x="430" y="100" width="120" height="30" as="geometry" />
        </mxCell>
        <mxCell id="lwoqXdrOreYqvJ2Ye-41-37" value="+5V" style="text;strokeColor=none;align=center;fillColor=none;html=1;verticalAlign=middle;whiteSpace=wrap;rounded=0;" parent="1" vertex="1">
          <mxGeometry x="210" y="170" width="60" height="30" as="geometry" />
        </mxCell>
        <mxCell id="u02Txuy_N0Pt8Rfw8Mgj-3" value="ADC Pin" style="text;html=1;align=center;verticalAlign=middle;whiteSpace=wrap;rounded=0;" vertex="1" parent="1">
          <mxGeometry x="430" y="210" width="60" height="30" as="geometry" />
        </mxCell>
      </root>
    </mxGraphModel>
  </diagram>
</mxfile>
